<?xml version="1.0" encoding="utf-8"?>
<!-- Generator: Adobe Illustrator 19.1.0, SVG Export Plug-In . SVG Version: 6.00 Build 0)  -->
<svg version="1.1" id="Layer_1" xmlns="http://www.w3.org/2000/svg" xmlns:xlink="http://www.w3.org/1999/xlink" x="0px" y="0px"
	 viewBox="0 0 560 560" style="enable-background:new 0 0 560 560;" xml:space="preserve">
<style type="text/css">
	.st0{fill:#DDDDDD;}
</style>
<rect class="st0" width="560" height="560"/>
<g>
	<path d="M48.6,241.1h7.1l16.9,60.3h0.2l16.5-60.3h6.5l16.5,60.2h0.2l16.9-60.2h7l-19.8,69.2h-8.8l-15.2-56.7h-0.2l-15.1,56.7h-8.9
		L48.6,241.1z"/>
	<path d="M163.6,257.8c15.1,0,26.8,12.8,26.8,26.8c0,13.9-11.5,26.8-26.8,26.8c-15,0-26.6-12.6-26.6-26.5
		C136.9,268.9,150.1,257.8,163.6,257.8z M163.7,305.6c9.9,0,20.2-7.9,20.2-21.2c0-13.5-11.4-20.7-20.2-20.7
		c-9.3,0-20.2,7.7-20.2,21.2C143.5,296.8,153.1,305.6,163.7,305.6z"/>
	<path d="M200.3,259.1h6.5v7.4h0.2c3.1-7.2,8.9-8.3,14.4-8.7v6.9c-4.6,0.4-8.5,2.1-11,5c-2.2,2.8-3.6,6.5-3.6,10.6v29.9h-6.5V259.1z
		"/>
	<path d="M279.6,310.3h-6.5v-9h-0.2c-5.4,8.1-14.5,10.2-19.9,10.2c-16.1,0-27.5-12.2-27.5-26.9c0-13.6,10.8-26.7,27.5-26.7
		c5.6,0,14.4,2.1,19.9,10.1h0.2v-26.8h6.5V310.3z M253,305.6c11,0,20.5-8.9,20.5-20.8c0-11.2-8.7-21-20.5-21
		c-11.2,0-20.9,8.1-20.9,21.1C232,296.3,240.4,305.6,253,305.6z"/>
	<path d="M292,259.1h6.5v5.9l-0.2-0.2v0.2h0.2c2.9-5,9.2-7.2,13.9-7.2c4.3,0,13.4,2,17.2,9.8c3.8-7.9,12.9-9.8,17.2-9.8
		c7.9,0,20.5,4.7,20.5,22.1v30.4h-6.5v-29.6c0-5.6-1-8.3-2.3-10.7c-2.2-3.6-6.1-6.3-11.6-6.3c-5.5,0-9.4,2.6-11.6,6.3
		c-1.3,2.3-2.3,5-2.3,10.7v29.6h-6.5v-29.6c0-5.6-1-8.3-2.3-10.7c-2.2-3.6-6.1-6.3-11.6-6.3c-5.5,0-9.4,2.6-11.6,6.3
		c-1.3,2.3-2.3,5-2.3,10.7v29.6H292V259.1z"/>
	<path d="M429.8,310.3h-6.5v-9H423c-5.6,8.4-14.6,10.2-19.9,10.2c-16.1,0-27.5-12.2-27.5-26.9c0-13.6,10.8-26.7,27.5-26.7
		c5.5,0,14.5,1.8,19.9,10.3h0.2v-9h6.5V310.3z M403.1,305.6c11,0,20.5-8.9,20.5-20.8c0-11.2-8.7-21-20.5-21
		c-11.2,0-20.9,8.1-20.9,21.1C382.2,296.3,390.6,305.6,403.1,305.6z"/>
	<path d="M441.6,259.1h6.5v7.4h0.2c3.1-7.2,8.9-8.3,14.4-8.7v6.9c-4.6,0.4-8.5,2.1-11,5c-2.2,2.8-3.6,6.5-3.6,10.6v29.9h-6.5V259.1z
		"/>
	<path d="M472.1,241.1h6.5v49.3h0.2l23.8-31.2h8.4L490.9,285l21.2,25.3h-8.4l-16.8-20.2l-8.2,10.5v9.7h-6.5V241.1z"/>
</g>
<g>
</g>
<g>
</g>
<g>
</g>
<g>
</g>
<g>
</g>
<g>
</g>
<g>
</g>
<g>
</g>
<g>
</g>
<g>
</g>
<g>
</g>
<g>
</g>
<g>
</g>
<g>
</g>
<g>
</g>
</svg>
