<?xml version="1.0" encoding="utf-8"?>
<!-- Generator: Adobe Illustrator 19.1.0, SVG Export Plug-In . SVG Version: 6.00 Build 0)  -->
<svg version="1.1" xmlns="http://www.w3.org/2000/svg" xmlns:xlink="http://www.w3.org/1999/xlink" x="0px" y="0px"
	 viewBox="0 0 576 576" style="enable-background:new 0 0 576 576;" xml:space="preserve">
<style type="text/css">
	.st0{fill:#33AF74;}
	.st1{fill:none;stroke:#000000;stroke-width:5;stroke-miterlimit:10;}
	.st2{fill:none;stroke:#000000;stroke-width:8;stroke-miterlimit:10;}
	.st3{clip-path:url(#SVGID_2_);}
	.st4{clip-path:url(#SVGID_2_);fill:#FFFFFF;stroke:#000000;stroke-width:4;stroke-miterlimit:10;}
	.st5{clip-path:url(#SVGID_2_);fill:none;}
</style>
<g id="Layer_1">
</g>
<g id="Layer_2">
	<g>
		<path class="st0" d="M162.2,61.1c-16.4-1.7-47.1,22.5-75.8,51.1c3.5,39.6,36.7,70.8,77.2,70.8c21.5,0,40.9-8.7,54.9-22.8
			C247.2,112.2,237.3,68.7,162.2,61.1z"/>
		<circle cx="163.7" cy="116.8" r="37"/>
		<path class="st1" d="M162.2,61.1C126.7,57.6,24.4,174.7,20.2,196.1s80,81.4,152.8,17.1S264.8,71.5,162.2,61.1z"/>
		<path class="st0" d="M411,61.1c16.4-1.7,47.1,22.5,75.8,51.1c-3.5,39.6-36.7,70.8-77.2,70.8c-21.5,0-40.9-8.7-54.9-22.8
			C326.1,112.2,336,68.7,411,61.1z"/>
		<circle cx="409.6" cy="116.8" r="37"/>
		<path class="st1" d="M411,61.1c35.5-3.6,137.8,113.5,142.1,134.9s-80,81.4-152.8,17.1S308.4,71.5,411,61.1z"/>
		<path d="M228.9,57.8c0,0,66.9,30,117.3-4.8C346.2,53.1,298.1,108.3,228.9,57.8z"/>
		<path d="M248.9,92.6c0,0,21.4,21.4,0,81.9C248.9,174.4,283.1,123,248.9,92.6z"/>
		<path d="M326.5,92.6c0,0-21.4,21.4,0,81.9C326.5,174.4,292.3,123,326.5,92.6z"/>
		<path d="M338.2,188.2c0,0,31.1,26.4,6.1,46.4C344.3,234.6,380.4,215.7,338.2,188.2z"/>
		<path d="M285.5,238.4c-19.9-1.2-33.6-18.7-35.8-18.1c-2.1,0.6-12.6,11.1-18.9,4.3c-9.3-10,6.4-23.8,17.5-23.8
			c10.2,0,7.7,12.8,4,16.6c0,0,15.2,13.5,33.2,13.5h4.5c18,0,33.2-13.5,33.2-13.5c-3.7-3.8-6.2-16.8,4-16.8
			c11.1,0,26.8,13.9,17.5,23.9c-6.3,6.8-16.8-3.6-18.9-4.2c-2.1-0.6-15.9,16.9-35.8,18.1L285.5,238.4z"/>
		<path d="M236.9,188.2c0,0-31.1,26.4-6.1,46.4C230.9,234.6,194.8,215.7,236.9,188.2z"/>
		<path class="st2" d="M210.1,47.6c0,0-40.1-20.4-56.3-18.5C137.5,31,31.8,116.8,31.8,116.8"/>
		<path class="st2" d="M363.2,47.6c0,0,40.1-20.4,56.3-18.5c16.2,1.9,121.9,87.8,121.9,87.8"/>
		<path d="M140.2,448.1c0,0,148.5,122.8,297,0C437.2,448.1,302,592.8,140.2,448.1z"/>
		<path d="M162.3,495.2c0,0,119.9,93.8,252.7,0C415.1,495.2,287.5,611.9,162.3,495.2z"/>
		<g>
			<defs>
				<path id="SVGID_1_" d="M468.5,291.7c-49.8-22.2-107-31.1-180.8-31.1c-73,0-137.8,12.2-178.4,31.1l0,0
					C70.4,308.2,6.1,364.4,24.7,394.8C43.2,425.3,268,416,287.7,416c19.7,0,246.8,9.3,265.4-21.2
					C571.6,364.4,497.2,304.5,468.5,291.7z"/>
			</defs>
			<clipPath id="SVGID_2_">
				<use xlink:href="#SVGID_1_"  style="overflow:visible;"/>
			</clipPath>
			<rect x="8.8" y="316.5" class="st3" width="557.9" height="65.8"/>
			<path class="st4" d="M271.8,333.2h-59.3c-7.3,0-13.2-5.9-13.2-13.2v-52.8c0-7.3,5.9-13.2,13.2-13.2h59.3
				c7.3,0,13.2,5.9,13.2,13.2V320C285,327.3,279.1,333.2,271.8,333.2z"/>
			<path class="st4" d="M276.9,372.9H236c-4.5,0-8.1,3.6-8.1,8.1v47.5c0,4.5,3.6,8.1,8.1,8.1h40.9c4.5,0,8.1-3.6,8.1-8.1V381
				C285,376.6,281.4,372.9,276.9,372.9z"/>
			<ellipse class="st5" cx="287.7" cy="338.3" rx="223" ry="77.7"/>
			<path class="st5" d="M468.5,291.7c-49.8-22.2-107-31.1-180.8-31.1c-73,0-137.8,12.2-178.4,31.1l0,0
				C70.4,308.2,6.1,364.4,24.7,394.8C43.2,425.3,268,416,287.7,416c19.7,0,246.8,9.3,265.4-21.2
				C571.6,364.4,497.2,304.5,468.5,291.7z"/>
			<path class="st4" d="M219.8,372.9h-40.9c-4.5,0-8.1,3.6-8.1,8.1v47.5c0,4.5,3.6,8.1,8.1,8.1h40.9c4.5,0,8.1-3.6,8.1-8.1V381
				C227.9,376.6,224.3,372.9,219.8,372.9z"/>
			<path class="st4" d="M162.7,372.9h-40.9c-4.5,0-8.1,3.6-8.1,8.1v47.5c0,4.5,3.6,8.1,8.1,8.1h40.9c4.5,0,8.1-3.6,8.1-8.1V381
				C170.8,376.6,167.2,372.9,162.7,372.9z"/>
			<path class="st4" d="M105.6,372.9H64.7c-4.5,0-8.1,3.6-8.1,8.1v47.5c0,4.5,3.6,8.1,8.1,8.1h40.9c4.5,0,8.1-3.6,8.1-8.1V381
				C113.7,376.6,110.1,372.9,105.6,372.9z"/>
			<path class="st4" d="M48.4,372.9H7.6c-4.5,0-8.1,3.6-8.1,8.1v47.5c0,4.5,3.6,8.1,8.1,8.1h40.9c4.5,0,8.1-3.6,8.1-8.1V381
				C56.6,376.6,52.9,372.9,48.4,372.9z"/>
			<path class="st4" d="M334,372.9h-40.9c-4.5,0-8.1,3.6-8.1,8.1v47.5c0,4.5,3.6,8.1,8.1,8.1H334c4.5,0,8.1-3.6,8.1-8.1V381
				C342.2,376.6,338.5,372.9,334,372.9z"/>
			<path class="st4" d="M391.2,372.9h-40.9c-4.5,0-8.1,3.6-8.1,8.1v47.5c0,4.5,3.6,8.1,8.1,8.1h40.9c4.5,0,8.1-3.6,8.1-8.1V381
				C399.3,376.6,395.6,372.9,391.2,372.9z"/>
			<path class="st4" d="M448.3,372.9h-40.9c-4.5,0-8.1,3.6-8.1,8.1v47.5c0,4.5,3.6,8.1,8.1,8.1h40.9c4.5,0,8.1-3.6,8.1-8.1V381
				C456.4,376.6,452.8,372.9,448.3,372.9z"/>
			<path class="st4" d="M505.4,372.9h-40.9c-4.5,0-8.1,3.6-8.1,8.1v47.5c0,4.5,3.6,8.1,8.1,8.1h40.9c4.5,0,8.1-3.6,8.1-8.1V381
				C513.5,376.6,509.9,372.9,505.4,372.9z"/>
			<path class="st4" d="M562.5,372.9h-40.9c-4.5,0-8.1,3.6-8.1,8.1v47.5c0,4.5,3.6,8.1,8.1,8.1h40.9c4.5,0,8.1-3.6,8.1-8.1V381
				C570.6,376.6,567,372.9,562.5,372.9z"/>
			<path class="st4" d="M357.5,333.2h-59.3c-7.3,0-13.2-5.9-13.2-13.2v-52.8c0-7.3,5.9-13.2,13.2-13.2h59.3
				c7.3,0,13.2,5.9,13.2,13.2V320C370.7,327.3,364.8,333.2,357.5,333.2z"/>
			<path class="st4" d="M437.5,333.2h-53.6c-7.3,0-13.2-5.9-13.2-13.2v-52.8c0-7.3,5.9-13.2,13.2-13.2h53.6
				c7.3,0,13.2,5.9,13.2,13.2V320C450.7,327.3,444.8,333.2,437.5,333.2z"/>
			<path class="st4" d="M517.5,333.2h-53.6c-7.3,0-13.2-5.9-13.2-13.2v-52.8c0-7.3,5.9-13.2,13.2-13.2h53.6
				c7.3,0,13.2,5.9,13.2,13.2V320C530.7,327.3,524.7,333.2,517.5,333.2z"/>
			<path class="st4" d="M106.2,333.2H52.6c-7.3,0-13.2-5.9-13.2-13.2v-52.8c0-7.3,5.9-13.2,13.2-13.2h53.6c7.3,0,13.2,5.9,13.2,13.2
				V320C119.4,327.3,113.5,333.2,106.2,333.2z"/>
			<path class="st4" d="M186.2,333.2h-53.6c-7.3,0-13.2-5.9-13.2-13.2v-52.8c0-7.3,5.9-13.2,13.2-13.2h53.6
				c7.3,0,13.2,5.9,13.2,13.2V320C199.4,327.3,193.5,333.2,186.2,333.2z"/>
		</g>
		<path class="st1" d="M468.5,291.7c-49.8-22.2-107-31.1-180.8-31.1c-73,0-137.8,12.2-178.4,31.1l0,0
			C70.4,308.2,6.1,364.4,24.7,394.8C43.2,425.3,268,416,287.7,416c19.7,0,246.8,9.3,265.4-21.2C571.6,364.4,497.2,304.5,468.5,291.7
			z"/>
	</g>
</g>
</svg>
