<?xml version="1.0" encoding="utf-8"?>
<!-- Generator: Adobe Illustrator 19.1.0, SVG Export Plug-In . SVG Version: 6.00 Build 0)  -->
<svg version="1.1" id="Layer_1" xmlns="http://www.w3.org/2000/svg" xmlns:xlink="http://www.w3.org/1999/xlink" x="0px" y="0px"
	 viewBox="0 0 960 560" style="enable-background:new 0 0 960 560;" xml:space="preserve">
<style type="text/css">
	.st0{fill:#828282;}
</style>
<rect class="st0" width="960" height="560"/>
<g>
	<path d="M275.5,237.7h18.9c23.7,0,24.6,17,24.6,20c0,8.8-5.6,13-8.2,15.1c7.5,3,12.5,9.9,12.5,18.5c0,7.2-3.4,13.8-8.6,17.4
		c-6.4,3.8-11.4,4.3-20.2,4.2h-18.9V237.7z M283.1,270.1h9.4c5.9,0,9.2-0.3,12.9-2.1c3.6-1.8,6.1-6.1,6.1-10.6
		c0-3.5-1.2-5.9-3.1-8.2c-2.9-3.4-7.5-4.7-15.2-4.7h-10.1V270.1z M283.1,306.1h10.6c6.3,0,10.2-0.3,14.2-1.9
		c4.7-1.9,7.9-7.1,7.9-12.8c0-5.8-3.9-10.8-8.8-12.7c-3.6-1.4-6.6-1.7-14.6-1.7h-9.2V306.1z"/>
	<path d="M332.9,237.7h7.1v12.8h-7.1V237.7z M332.9,257.3h7.1v55.6h-7.1V257.3z"/>
	<path d="M353.2,237.7h7.1v75.2h-7.1V237.7z"/>
	<path d="M373.5,237.7h7.1v75.2h-7.1V237.7z"/>
	<path d="M394.2,237.7h7.1v29.4h0.2c6.3-9,15.6-11.2,21.6-11.2c18.2,0,29.9,14.2,29.9,29.1c0,15.9-12.4,29.3-29.9,29.3
		c-5.8,0-15.4-2-21.6-11.1h-0.2v9.8h-7.1V237.7z M423.1,262.3c-12.8,0-22.2,10.7-22.2,22.9c0,13,10.3,22.7,22.2,22.7
		c13.6,0,22.8-10.2,22.8-22.5C445.9,271.2,435.3,262.3,423.1,262.3z"/>
	<path d="M489.7,255.9c16.5,0,29.2,13.9,29.2,29.2c0,15.1-12.5,29.2-29.2,29.2c-16.3,0-28.9-13.7-28.9-28.7
		C460.8,267.9,475.1,255.9,489.7,255.9z M489.8,307.8c10.8,0,21.9-8.5,21.9-23.1c0-14.6-12.4-22.4-21.9-22.4
		c-10.2,0-21.9,8.3-21.9,23.1C467.9,298.3,478.4,307.8,489.8,307.8z"/>
	<path d="M586.1,312.9H579v-9.8h-0.2c-6.1,9.1-15.8,11.1-21.6,11.1c-17.5,0-29.9-13.3-29.9-29.3c0-14.8,11.7-29.1,29.9-29.1
		c6,0,15.7,1.9,21.6,11.2h0.2v-9.8h7.1V312.9z M557.2,307.8c12,0,22.2-9.6,22.2-22.7c0-12.2-9.4-22.9-22.2-22.9
		c-12.2,0-22.8,8.8-22.8,23C534.4,297.7,543.6,307.8,557.2,307.8z"/>
	<path d="M599,257.3h7.1v8h0.2c3.4-7.8,9.7-9,15.6-9.4v7.5c-5,0.4-9.2,2.2-12,5.5c-2.4,3-3.9,7-3.9,11.5v32.5H599V257.3z"/>
	<path d="M685.2,312.9h-7.1v-9.8h-0.2c-5.9,8.8-15.7,11.1-21.6,11.1c-17.5,0-29.9-13.3-29.9-29.3c0-14.8,11.7-29.1,29.9-29.1
		c6.1,0,15.6,2.2,21.6,11h0.2v-29.2h7.1V312.9z M656.2,307.8c12,0,22.2-9.6,22.2-22.7c0-12.2-9.4-22.9-22.2-22.9
		c-12.2,0-22.8,8.8-22.8,23C633.5,297.7,642.6,307.8,656.2,307.8z"/>
</g>
<g>
</g>
<g>
</g>
<g>
</g>
<g>
</g>
<g>
</g>
<g>
</g>
<g>
</g>
<g>
</g>
<g>
</g>
<g>
</g>
<g>
</g>
<g>
</g>
<g>
</g>
<g>
</g>
<g>
</g>
</svg>
