<?xml version="1.0" encoding="utf-8"?>
<!-- Generator: Adobe Illustrator 19.1.0, SVG Export Plug-In . SVG Version: 6.00 Build 0)  -->
<svg version="1.1" id="Layer_1" xmlns="http://www.w3.org/2000/svg" xmlns:xlink="http://www.w3.org/1999/xlink" x="0px" y="0px"
	 viewBox="0 0 280 280" style="enable-background:new 0 0 280 280;" xml:space="preserve">
<style type="text/css">
	.st0{fill:#333333;}
	.st1{fill:#FFFFFF;}
</style>
<rect class="st0" width="280" height="280"/>
<g>
	<path class="st1" d="M89.7,124.5h7.7c3.8,0,5.6,0.6,7.1,1.6c2,1.4,3.4,3.7,3.4,6.6c0,2.9-1.4,5.3-3.4,6.6c-1.5,1-3.3,1.6-7.1,1.6
		h-4.9v11.1h-2.8V124.5z M92.4,138.5h4c2.9,0,3.9,0,5.5-0.7c2.2-1,3.2-2.9,3.2-5c0-2.1-1-4-3.2-5c-1.6-0.7-2.6-0.7-5.5-0.7h-4V138.5
		z"/>
	<path class="st1" d="M111.2,124.5h2.6v9.8h0.1c0.8-1.2,2.8-3.1,6.3-3.1c2.5,0,4.6,0.6,6.4,2.5c1.5,1.5,2.5,3.8,2.5,7.2v11.2h-2.6
		v-11.2c0-2.6-0.8-4.5-1.9-5.6c-1.4-1.4-3.3-1.8-4.4-1.8s-3,0.4-4.4,1.8c-1.1,1.1-1.9,2.9-1.9,5.6v11.2h-2.6V124.5z"/>
	<path class="st1" d="M143.9,131.2c6,0,10.7,5.1,10.7,10.7c0,5.6-4.6,10.7-10.7,10.7c-6,0-10.6-5-10.6-10.5
		C133.2,135.6,138.5,131.2,143.9,131.2z M143.9,150.2c4,0,8-3.1,8-8.5c0-5.4-4.5-8.2-8-8.2c-3.7,0-8,3.1-8,8.5
		C135.8,146.7,139.7,150.2,143.9,150.2z"/>
	<path class="st1" d="M160.9,134h-4.3v-2.3h4.3v-7.2h2.6v7.2h4.9v2.3h-4.9v18h-2.6V134z"/>
	<path class="st1" d="M180.9,131.2c6,0,10.7,5.1,10.7,10.7c0,5.6-4.6,10.7-10.7,10.7c-6,0-10.6-5-10.6-10.5
		C170.3,135.6,175.5,131.2,180.9,131.2z M180.9,150.2c3.9,0,8-3.1,8-8.5c0-5.4-4.5-8.2-8-8.2c-3.7,0-8,3.1-8,8.5
		C172.9,146.7,176.7,150.2,180.9,150.2z"/>
</g>
<g>
</g>
<g>
</g>
<g>
</g>
<g>
</g>
<g>
</g>
<g>
</g>
<g>
</g>
<g>
</g>
<g>
</g>
<g>
</g>
<g>
</g>
<g>
</g>
<g>
</g>
<g>
</g>
<g>
</g>
</svg>
