<?xml version="1.0" encoding="utf-8"?>
<!-- Generator: Adobe Illustrator 19.1.0, SVG Export Plug-In . SVG Version: 6.00 Build 0)  -->
<svg version="1.1" id="Layer_1" xmlns="http://www.w3.org/2000/svg" xmlns:xlink="http://www.w3.org/1999/xlink" x="0px" y="0px"
	 viewBox="0 0 280 280" style="enable-background:new 0 0 280 280;" xml:space="preserve">
<style type="text/css">
	.st0{fill:#333333;}
	.st1{fill:#FFFFFF;}
</style>
<rect class="st0" width="280" height="280"/>
<g>
	<path class="st1" d="M55.5,99.2h5.2c2.6,0,3.8,0.4,4.8,1.1c1.4,0.9,2.3,2.5,2.3,4.5c0,2-0.9,3.6-2.3,4.5c-1,0.7-2.2,1.1-4.8,1.1
		h-3.3v7.5h-1.9V99.2z M57.4,108.7h2.7c2,0,2.7,0,3.7-0.5c1.5-0.7,2.2-2,2.2-3.4c0-1.4-0.7-2.7-2.2-3.4c-1.1-0.5-1.7-0.5-3.7-0.5
		h-2.7V108.7z"/>
	<path class="st1" d="M75.3,103.7c4.1,0,7.2,3.5,7.2,7.2c0,3.8-3.1,7.2-7.2,7.2c-4,0-7.2-3.4-7.2-7.1
		C68.1,106.7,71.6,103.7,75.3,103.7z M75.3,116.6c2.7,0,5.5-2.1,5.5-5.7c0-3.6-3.1-5.6-5.5-5.6c-2.5,0-5.5,2.1-5.5,5.7
		C69.9,114.3,72.5,116.6,75.3,116.6z"/>
	<path class="st1" d="M85.2,104.1H87v2H87c0.8-1.9,2.4-2.2,3.9-2.3v1.9c-1.2,0.1-2.3,0.6-3,1.4c-0.6,0.8-1,1.7-1,2.9v8.1h-1.8V104.1
		z"/>
	<path class="st1" d="M94.9,105.7H92v-1.6h2.9v-4.9h1.8v4.9h3.3v1.6h-3.3v12.2h-1.8V105.7z"/>
	<path class="st1" d="M102.8,105.7h-2.1v-1.6h2.1c0.1-1.9,0.2-5.1,5.3-5.2v1.6c-3.6,0-3.5,2.3-3.5,3.6h3.5v1.6h-3.5v12.2h-1.8V105.7
		z"/>
	<path class="st1" d="M115.4,103.7c4.1,0,7.2,3.5,7.2,7.2c0,3.8-3.1,7.2-7.2,7.2c-4,0-7.2-3.4-7.2-7.1
		C108.2,106.7,111.7,103.7,115.4,103.7z M115.4,116.6c2.7,0,5.5-2.1,5.5-5.7c0-3.6-3.1-5.6-5.5-5.6c-2.5,0-5.5,2.1-5.5,5.7
		C110,114.3,112.6,116.6,115.4,116.6z"/>
	<path class="st1" d="M125.3,99.2h1.8v18.7h-1.8V99.2z"/>
	<path class="st1" d="M130.3,99.2h1.8v3.2h-1.8V99.2z M130.3,104.1h1.8v13.8h-1.8V104.1z"/>
	<path class="st1" d="M142,103.7c4.1,0,7.2,3.5,7.2,7.2c0,3.8-3.1,7.2-7.2,7.2c-4,0-7.2-3.4-7.2-7.1
		C134.8,106.7,138.4,103.7,142,103.7z M142,116.6c2.7,0,5.5-2.1,5.5-5.7c0-3.6-3.1-5.6-5.5-5.6c-2.5,0-5.5,2.1-5.5,5.7
		C136.6,114.3,139.2,116.6,142,116.6z"/>
	<path class="st1" d="M159.2,99.2h5.2c2.6,0,3.8,0.4,4.8,1.1c1.4,0.9,2.3,2.5,2.3,4.5c0,2-0.9,3.6-2.3,4.5c-1,0.7-2.2,1.1-4.8,1.1
		H161v7.5h-1.9V99.2z M161,108.7h2.7c2,0,2.7,0,3.7-0.5c1.5-0.7,2.2-2,2.2-3.4c0-1.4-0.7-2.7-2.2-3.4c-1.1-0.5-1.7-0.5-3.7-0.5H161
		V108.7z"/>
	<path class="st1" d="M173.9,99.2h1.8v3.2h-1.8V99.2z M173.9,104.1h1.8v13.8h-1.8V104.1z"/>
	<path class="st1" d="M180,111.6c0.1,2.7,2.6,5,5.4,5c2.5-0.1,4.3-1.5,4.9-3.3h1.9c-1,2.8-3.6,4.8-6.8,4.8c-3.9,0-7.2-3.1-7.2-7.2
		c0-3.9,3.2-7.2,7.2-7.3c3,0,5.2,1.8,6.2,3.5c0.9,1.5,1.1,3,1.1,4.4H180z M190.8,110c-0.6-3.3-3.2-4.7-5.4-4.7
		c-2.2,0-4.9,1.5-5.4,4.7H190.8z"/>
	<path class="st1" d="M209,113.8c-0.9,1.7-2.7,4.4-6.9,4.4c-4.3,0-7.4-3.4-7.4-7.2c0-4,3.3-7.3,7.4-7.3c2.4,0,5.5,1.2,6.9,4.5H207
		c-1.1-2.1-3.1-2.9-4.9-2.9c-2.7,0-5.7,2-5.7,5.6c0,3.1,2.4,5.7,5.7,5.7c2.9,0,4.3-1.7,4.9-2.8H209z"/>
	<path class="st1" d="M212.8,111.6c0.1,2.7,2.6,5,5.4,5c2.5-0.1,4.3-1.5,4.9-3.3h1.9c-1,2.8-3.6,4.8-6.8,4.8c-3.9,0-7.2-3.1-7.2-7.2
		c0-3.9,3.2-7.2,7.2-7.3c3,0,5.2,1.8,6.2,3.5c0.9,1.5,1.1,3,1.1,4.4H212.8z M223.6,110c-0.6-3.3-3.2-4.7-5.4-4.7
		c-2.2,0-4.9,1.5-5.4,4.7H223.6z"/>
	<path class="st1" d="M14.4,129.5h2.1l8,18.7h-2l-2.7-6.3h-8.7l-2.7,6.3H6.4L14.4,129.5z M11.8,140.2h7.2l-3.6-8.6L11.8,140.2z"/>
	<path class="st1" d="M26.5,129.5h1.8v18.7h-1.8V129.5z"/>
	<path class="st1" d="M33.1,136h-2.9v-1.6h2.9v-4.9h1.8v4.9h3.3v1.6h-3.3v12.2h-1.8V136z"/>
	<path class="st1" d="M41.2,141.9c0.1,2.7,2.6,5,5.4,5c2.5-0.1,4.3-1.5,4.9-3.3h1.9c-1,2.8-3.6,4.8-6.8,4.8c-3.9,0-7.2-3.1-7.2-7.2
		c0-3.9,3.2-7.2,7.2-7.3c3,0,5.2,1.8,6.2,3.5c0.9,1.5,1.1,3,1.1,4.4H41.2z M52,140.3c-0.6-3.3-3.2-4.7-5.4-4.7
		c-2.2,0-4.9,1.5-5.4,4.7H52z"/>
	<path class="st1" d="M56.5,134.4h1.8v2h0.1c0.8-1.9,2.4-2.2,3.9-2.3v1.9c-1.2,0.1-2.3,0.6-3,1.4c-0.6,0.8-1,1.7-1,2.9v8.1h-1.8
		V134.4z"/>
	<path class="st1" d="M64.6,134.4h1.8v1.8h0.1c0.5-0.8,1.9-2.1,4.2-2.1c1.7,0,3.1,0.4,4.4,1.7c1,1,1.7,2.6,1.7,4.9v7.6H75v-7.6
		c0-1.8-0.6-3.1-1.3-3.8c-1-0.9-2.2-1.2-3-1.2c-0.8,0-2,0.3-3,1.2c-0.8,0.7-1.3,2-1.3,3.8v7.6h-1.8V134.4z"/>
	<path class="st1" d="M94,148.2h-1.8v-2.4h-0.1c-1.5,2.3-3.9,2.8-5.4,2.8c-4.3,0-7.4-3.3-7.4-7.3c0-3.7,2.9-7.2,7.4-7.2
		c1.5,0,3.9,0.5,5.4,2.8h0.1v-2.4H94V148.2z M86.8,146.9c3,0,5.5-2.4,5.5-5.6c0-3-2.3-5.7-5.5-5.7c-3,0-5.7,2.2-5.7,5.7
		C81.2,144.4,83.4,146.9,86.8,146.9z"/>
	<path class="st1" d="M98.8,136h-2.9v-1.6h2.9v-4.9h1.8v4.9h3.3v1.6h-3.3v12.2h-1.8V136z"/>
	<path class="st1" d="M106.9,141.9c0.1,2.7,2.6,5,5.4,5c2.5-0.1,4.3-1.5,4.9-3.3h1.9c-1,2.8-3.6,4.8-6.8,4.8c-3.9,0-7.2-3.1-7.2-7.2
		c0-3.9,3.2-7.2,7.2-7.3c3,0,5.2,1.8,6.2,3.5c0.9,1.5,1.1,3,1.1,4.4H106.9z M117.7,140.3c-0.6-3.3-3.2-4.7-5.4-4.7
		c-2.2,0-4.9,1.5-5.4,4.7H117.7z"/>
	<path class="st1" d="M128.7,129.5h2l-7.1,21.2h-1.9L128.7,129.5z"/>
	<path class="st1" d="M139.8,129.5h2.1l8,18.7h-2l-2.7-6.3h-8.7l-2.7,6.3h-1.9L139.8,129.5z M137.2,140.2h7.2l-3.6-8.6L137.2,140.2z
		"/>
	<path class="st1" d="M151.9,134.4h1.8v2.4h0.1c1.6-2.3,3.9-2.8,5.4-2.8c4.5,0,7.4,3.5,7.4,7.2c0,4-3.1,7.3-7.4,7.3
		c-1.4,0-3.8-0.5-5.4-2.8h-0.1v7.3h-1.8V134.4z M159.1,135.6c-3.2,0-5.5,2.6-5.5,5.7c0,3.2,2.5,5.6,5.5,5.6c3.4,0,5.7-2.5,5.7-5.6
		C164.7,137.8,162.1,135.6,159.1,135.6z"/>
	<path class="st1" d="M169.1,134.4h1.8v2.4h0.1c1.6-2.3,3.9-2.8,5.4-2.8c4.5,0,7.4,3.5,7.4,7.2c0,4-3.1,7.3-7.4,7.3
		c-1.4,0-3.8-0.5-5.4-2.8h-0.1v7.3h-1.8V134.4z M176.3,135.6c-3.2,0-5.5,2.6-5.5,5.7c0,3.2,2.5,5.6,5.5,5.6c3.4,0,5.7-2.5,5.7-5.6
		C181.9,137.8,179.3,135.6,176.3,135.6z"/>
	<path class="st1" d="M186.3,129.5h1.8v18.7h-1.8V129.5z"/>
	<path class="st1" d="M191.4,129.5h1.8v3.2h-1.8V129.5z M191.4,134.4h1.8v13.8h-1.8V134.4z"/>
	<path class="st1" d="M210.1,144.1c-0.9,1.7-2.7,4.4-6.9,4.4c-4.3,0-7.4-3.4-7.4-7.2c0-4,3.3-7.3,7.4-7.3c2.4,0,5.5,1.2,6.9,4.5
		h-1.9c-1.1-2.1-3.1-2.9-4.9-2.9c-2.7,0-5.7,2-5.7,5.6c0,3.1,2.4,5.7,5.7,5.7c2.9,0,4.3-1.7,4.9-2.8H210.1z"/>
	<path class="st1" d="M226.8,148.2H225v-2.4H225c-1.5,2.3-3.9,2.8-5.4,2.8c-4.3,0-7.4-3.3-7.4-7.3c0-3.7,2.9-7.2,7.4-7.2
		c1.5,0,3.9,0.5,5.4,2.8h0.1v-2.4h1.8V148.2z M219.6,146.9c3,0,5.5-2.4,5.5-5.6c0-3-2.3-5.7-5.5-5.7c-3,0-5.7,2.2-5.7,5.7
		C213.9,144.4,216.2,146.9,219.6,146.9z"/>
	<path class="st1" d="M231.6,136h-2.9v-1.6h2.9v-4.9h1.8v4.9h3.3v1.6h-3.3v12.2h-1.8V136z"/>
	<path class="st1" d="M238.5,129.5h1.8v3.2h-1.8V129.5z M238.5,134.4h1.8v13.8h-1.8V134.4z"/>
	<path class="st1" d="M250.2,134c4.1,0,7.2,3.5,7.2,7.2c0,3.8-3.1,7.2-7.2,7.2c-4,0-7.2-3.4-7.2-7.1C243,137,246.6,134,250.2,134z
		 M250.2,146.9c2.7,0,5.5-2.1,5.5-5.7c0-3.6-3.1-5.6-5.5-5.6c-2.5,0-5.5,2.1-5.5,5.7C244.8,144.5,247.4,146.9,250.2,146.9z"/>
	<path class="st1" d="M260.1,134.4h1.8v1.8h0.1c0.5-0.8,1.9-2.1,4.2-2.1c1.7,0,3.1,0.4,4.4,1.7c1,1,1.7,2.6,1.7,4.9v7.6h-1.8v-7.6
		c0-1.8-0.6-3.1-1.3-3.8c-1-0.9-2.2-1.2-3-1.2c-0.8,0-2,0.3-3,1.2c-0.8,0.7-1.3,2-1.3,3.8v7.6h-1.8V134.4z"/>
	<path class="st1" d="M102.2,159.8h1.9v18.7h-1.9V159.8z"/>
	<path class="st1" d="M107.6,164.7h1.8v1.6l-0.1-0.1v0.1h0.1c0.8-1.4,2.5-1.9,3.8-1.9c1.2,0,3.6,0.5,4.6,2.6c1-2.1,3.5-2.6,4.6-2.6
		c2.1,0,5.5,1.3,5.5,6v8.2h-1.8v-8c0-1.5-0.3-2.2-0.6-2.9c-0.6-1-1.6-1.7-3.1-1.7c-1.5,0-2.5,0.7-3.1,1.7c-0.4,0.6-0.6,1.4-0.6,2.9
		v8h-1.8v-8c0-1.5-0.3-2.2-0.6-2.9c-0.6-1-1.6-1.7-3.1-1.7s-2.5,0.7-3.1,1.7c-0.4,0.6-0.6,1.4-0.6,2.9v8h-1.8V164.7z"/>
	<path class="st1" d="M144.8,178.5H143V176H143c-1.5,2.3-3.9,2.8-5.4,2.8c-4.3,0-7.4-3.3-7.4-7.3c0-3.7,2.9-7.2,7.4-7.2
		c1.5,0,3.9,0.5,5.4,2.8h0.1v-2.4h1.8V178.5z M137.6,177.2c3,0,5.5-2.4,5.5-5.6c0-3-2.3-5.7-5.5-5.7c-3,0-5.7,2.2-5.7,5.7
		C132,174.7,134.2,177.2,137.6,177.2z"/>
	<path class="st1" d="M161.7,176.3c0,1.5,0,3.4-1.3,5c-1.7,2.4-4.9,2.5-5.5,2.5c-2,0-5.8-0.8-7.1-5.1h1.9c0.5,1.1,1.8,3.5,5.2,3.5
		c2.3,0,5-1.3,5-5.1v-1.2h-0.1c-1,2-3.3,2.9-5.3,2.9c-3.6,0-7.2-2.8-7.2-7.2c0-4.4,3.6-7.3,7.2-7.3c1.3,0,3.7,0.4,5.3,2.8h0.1v-2.5
		h1.8V176.3z M154.5,177.2c3.7,0,5.5-3.3,5.5-5.6c0-3-2.4-5.7-5.5-5.7c-3.1,0-5.5,2.6-5.5,5.7C149.1,174.6,151.4,177.2,154.5,177.2z
		"/>
	<path class="st1" d="M166.1,172.2c0.1,2.7,2.6,5,5.4,5c2.5-0.1,4.3-1.5,4.9-3.3h1.9c-1,2.8-3.6,4.8-6.8,4.8c-3.9,0-7.2-3.1-7.2-7.2
		c0-3.9,3.2-7.2,7.2-7.3c3,0,5.2,1.8,6.2,3.5c0.9,1.5,1.1,3,1.1,4.4H166.1z M176.9,170.6c-0.6-3.3-3.2-4.7-5.4-4.7
		c-2.2,0-4.9,1.5-5.4,4.7H176.9z"/>
</g>
<g>
</g>
<g>
</g>
<g>
</g>
<g>
</g>
<g>
</g>
<g>
</g>
<g>
</g>
<g>
</g>
<g>
</g>
<g>
</g>
<g>
</g>
<g>
</g>
<g>
</g>
<g>
</g>
<g>
</g>
</svg>
