<?xml version="1.0" encoding="utf-8"?>
<!-- Generator: Adobe Illustrator 19.1.0, SVG Export Plug-In . SVG Version: 6.00 Build 0)  -->
<svg version="1.1" id="Layer_1" xmlns="http://www.w3.org/2000/svg" xmlns:xlink="http://www.w3.org/1999/xlink" x="0px" y="0px"
	 viewBox="0 0 280 280" style="enable-background:new 0 0 280 280;" xml:space="preserve">
<style type="text/css">
	.st0{fill:#333333;}
	.st1{fill:#FFFFFF;}
</style>
<rect class="st0" width="280" height="280"/>
<g>
	<path class="st1" d="M15.2,124.5h7.7c3.8,0,5.6,0.6,7.1,1.6c2,1.4,3.4,3.7,3.4,6.6c0,2.9-1.4,5.3-3.4,6.6c-1.5,1-3.3,1.6-7.1,1.6
		H18v11.1h-2.8V124.5z M18,138.5h4c2.9,0,3.9,0,5.5-0.7c2.2-1,3.2-2.9,3.2-5c0-2.1-1-4-3.2-5c-1.6-0.7-2.6-0.7-5.5-0.7h-4V138.5z"/>
	<path class="st1" d="M44.4,131.2c6,0,10.7,5.1,10.7,10.7c0,5.6-4.6,10.7-10.7,10.7c-6,0-10.6-5-10.6-10.5
		C33.8,135.6,39.1,131.2,44.4,131.2z M44.5,150.2c3.9,0,8-3.1,8-8.5c0-5.4-4.5-8.2-8-8.2c-3.7,0-8,3.1-8,8.5
		C36.4,146.7,40.3,150.2,44.5,150.2z"/>
	<path class="st1" d="M59.1,131.7h2.6v2.9h0.1c1.2-2.9,3.5-3.3,5.7-3.5v2.8c-1.8,0.1-3.4,0.8-4.4,2c-0.9,1.1-1.4,2.6-1.4,4.2v11.9
		h-2.6V131.7z"/>
	<path class="st1" d="M73.4,134h-4.3v-2.3h4.3v-7.2H76v7.2h4.9v2.3H76v18h-2.6V134z"/>
	<path class="st1" d="M85.1,134H82v-2.3h3.2c0.1-2.8,0.3-7.6,7.8-7.7v2.4c-5.3,0-5.2,3.4-5.2,5.3h5.2v2.3h-5.2v18h-2.6V134z"/>
	<path class="st1" d="M103.6,131.2c6,0,10.7,5.1,10.7,10.7c0,5.6-4.6,10.7-10.7,10.7c-6,0-10.6-5-10.6-10.5
		C93,135.6,98.3,131.2,103.6,131.2z M103.7,150.2c4,0,8-3.1,8-8.5c0-5.4-4.5-8.2-8-8.2c-3.7,0-8,3.1-8,8.5
		C95.6,146.7,99.5,150.2,103.7,150.2z"/>
	<path class="st1" d="M118.3,124.5h2.6v27.6h-2.6V124.5z"/>
	<path class="st1" d="M125.7,124.5h2.6v4.7h-2.6V124.5z M125.7,131.7h2.6v20.4h-2.6V131.7z"/>
	<path class="st1" d="M143,131.2c6,0,10.7,5.1,10.7,10.7c0,5.6-4.6,10.7-10.7,10.7c-6,0-10.6-5-10.6-10.5
		C132.3,135.6,137.6,131.2,143,131.2z M143,150.2c4,0,8-3.1,8-8.5c0-5.4-4.5-8.2-8-8.2c-3.7,0-8,3.1-8,8.5
		C135,146.7,138.8,150.2,143,150.2z"/>
	<path class="st1" d="M168.3,124.5h7.7c3.8,0,5.6,0.6,7.1,1.6c2,1.4,3.4,3.7,3.4,6.6c0,2.9-1.4,5.3-3.4,6.6c-1.5,1-3.3,1.6-7.1,1.6
		h-4.9v11.1h-2.8V124.5z M171.1,138.5h4c2.9,0,3.9,0,5.5-0.7c2.2-1,3.2-2.9,3.2-5c0-2.1-1-4-3.2-5c-1.6-0.7-2.6-0.7-5.5-0.7h-4
		V138.5z"/>
	<path class="st1" d="M190,124.5h2.6v4.7H190V124.5z M190,131.7h2.6v20.4H190V131.7z"/>
	<path class="st1" d="M199.1,142.8c0.2,4,3.9,7.4,7.9,7.4c3.7-0.1,6.4-2.3,7.3-4.8h2.8c-1.4,4.1-5.3,7.2-10,7.2
		c-5.7,0-10.6-4.6-10.6-10.7c0-5.8,4.7-10.6,10.6-10.7c4.5,0,7.6,2.7,9.1,5.2c1.4,2.2,1.7,4.5,1.6,6.4H199.1z M215,140.5
		c-0.8-4.8-4.7-7-8-7c-3.2,0-7.2,2.2-7.9,7H215z"/>
	<path class="st1" d="M241.9,146.1c-1.3,2.5-4,6.5-10.1,6.5c-6.4,0-11-5-11-10.7c0-5.9,4.9-10.7,11-10.7c3.6,0,8.2,1.8,10.1,6.7H239
		c-1.6-3.1-4.6-4.3-7.2-4.3c-4,0-8.4,3-8.4,8.3c0,4.6,3.5,8.4,8.4,8.4c4.2,0,6.4-2.6,7.2-4.1H241.9z"/>
	<path class="st1" d="M247.5,142.8c0.2,4,3.9,7.4,7.9,7.4c3.7-0.1,6.4-2.3,7.3-4.8h2.8c-1.4,4.1-5.3,7.2-10,7.2
		c-5.7,0-10.6-4.6-10.6-10.7c0-5.8,4.7-10.6,10.6-10.7c4.5,0,7.6,2.7,9.1,5.2c1.4,2.2,1.7,4.5,1.6,6.4H247.5z M263.4,140.5
		c-0.8-4.8-4.7-7-8-7c-3.2,0-7.2,2.2-7.9,7H263.4z"/>
</g>
<g>
</g>
<g>
</g>
<g>
</g>
<g>
</g>
<g>
</g>
<g>
</g>
<g>
</g>
<g>
</g>
<g>
</g>
<g>
</g>
<g>
</g>
<g>
</g>
<g>
</g>
<g>
</g>
<g>
</g>
</svg>
