<?xml version="1.0" encoding="utf-8"?>
<!-- Generator: Adobe Illustrator 19.1.0, SVG Export Plug-In . SVG Version: 6.00 Build 0)  -->
<svg version="1.1" id="Layer_1" xmlns="http://www.w3.org/2000/svg" xmlns:xlink="http://www.w3.org/1999/xlink" x="0px" y="0px"
	 viewBox="0 0 280 280" style="enable-background:new 0 0 280 280;" xml:space="preserve">
<style type="text/css">
	.st0{fill:#333333;}
	.st1{fill:#FFFFFF;}
</style>
<rect class="st0" width="280" height="280"/>
<g>
	<path class="st1" d="M57.4,146.4c0.2,5.1,3.4,8.3,8.4,8.3c4.2,0,8.1-3.3,8.1-8c0-6.2-6.2-7.8-9-8.6c-3.6-1.1-10.4-2.6-10.4-10.6
		c0-6.2,4.9-10.8,11.3-10.8c6.6,0,11.1,5.1,11.1,10.9h-4c0-4.1-3.3-7.3-7.1-7.3c-4.6,0-7.3,3.5-7.3,7c0,4.9,4.3,6,9.6,7.6
		c9.9,2.7,9.8,10.4,9.8,11.6c0,6.2-5,11.8-12.1,11.8c-5.2,0-12.2-3.1-12.4-12H57.4z"/>
	<path class="st1" d="M83.1,117.4h3.8V146H87l13.9-18.1h4.9l-11.7,15l12.3,14.7h-4.9l-9.8-11.7l-4.8,6.1v5.7h-3.8V117.4z"/>
	<path class="st1" d="M111.7,144.1c0.3,5.8,5.7,10.8,11.5,10.8c5.4-0.1,9.3-3.3,10.6-7h4c-2.1,5.9-7.8,10.4-14.6,10.4
		c-8.3,0-15.5-6.7-15.5-15.5c0-8.4,6.8-15.5,15.4-15.6c6.5,0.1,11.1,3.9,13.3,7.6c2,3.2,2.4,6.5,2.3,9.4H111.7z M134.9,140.7
		c-1.2-7-6.9-10.2-11.6-10.2c-4.7,0-10.5,3.2-11.6,10.2H134.9z"/>
	<path class="st1" d="M148.1,131.3h-6.2v-3.4h6.2v-10.5h3.8v10.5h7.1v3.4h-7.1v26.3h-3.8V131.3z"/>
	<path class="st1" d="M192.5,148.9c-1.9,3.7-5.9,9.5-14.8,9.5c-9.3,0-16-7.2-16-15.5c0-8.6,7.1-15.6,16-15.6
		c5.2,0,11.9,2.6,14.8,9.7h-4.2c-2.4-4.5-6.7-6.3-10.5-6.3c-5.8,0-12.3,4.3-12.3,12.1c0,6.7,5.2,12.2,12.3,12.2
		c6.2,0,9.3-3.7,10.5-6H192.5z"/>
	<path class="st1" d="M198,117.4h3.8v14.3h0.1c1.1-1.8,4.1-4.6,9.1-4.6c3.6,0,6.7,0.9,9.4,3.6c2.2,2.2,3.7,5.6,3.7,10.5v16.4h-3.8
		v-16.4c0-3.9-1.2-6.6-2.8-8.2c-2.1-2-4.8-2.6-6.5-2.6c-1.7,0-4.4,0.5-6.5,2.6c-1.6,1.6-2.8,4.3-2.8,8.2v16.4H198V117.4z"/>
</g>
<g>
</g>
<g>
</g>
<g>
</g>
<g>
</g>
<g>
</g>
<g>
</g>
<g>
</g>
<g>
</g>
<g>
</g>
<g>
</g>
<g>
</g>
<g>
</g>
<g>
</g>
<g>
</g>
<g>
</g>
</svg>
