<?xml version="1.0" encoding="utf-8"?>
<!-- Generator: Adobe Illustrator 19.1.0, SVG Export Plug-In . SVG Version: 6.00 Build 0)  -->
<svg version="1.1" id="Layer_1" xmlns="http://www.w3.org/2000/svg" xmlns:xlink="http://www.w3.org/1999/xlink" x="0px" y="0px"
	 viewBox="0 0 560 560" style="enable-background:new 0 0 560 560;" xml:space="preserve">
<style type="text/css">
	.st0{fill:#DDDDDD;}
</style>
<rect class="st0" width="560" height="560"/>
<g>
	<path d="M93.2,307.4l-16-63h8.6l7.5,31.9c1.9,7.9,3.6,15.7,4.7,21.8h0.2c1-6.3,3-13.7,5.1-21.9l8.4-31.8h8.5l7.7,32
		c1.8,7.5,3.5,15,4.4,21.6h0.2c1.3-6.9,3.1-13.9,5-21.8l8.3-31.8h8.3l-17.9,63h-8.5l-7.9-32.8c-2-8-3.3-14.2-4.1-20.6h-0.2
		c-1,6.3-2.5,12.4-4.9,20.6l-9,32.8H93.2z"/>
	<path d="M199.6,284.4c0,16.7-11.7,24-22.5,24c-12.2,0-21.7-9-21.7-23.3c0-15.1,10-23.9,22.4-23.9
		C190.8,261.3,199.6,270.7,199.6,284.4z M163.8,284.9c0,9.9,5.6,17.4,13.6,17.4c7.9,0,13.7-7.4,13.7-17.6c0-7.7-3.8-17.3-13.6-17.3
		C168,267.4,163.8,276.4,163.8,284.9z"/>
	<path d="M209.9,276.3c0-5.3-0.1-9.9-0.4-14.1h7.2l0.4,9h0.3c2.1-6.1,7.1-9.9,12.6-9.9c0.8,0,1.5,0.1,2.2,0.2v7.8
		c-0.8-0.2-1.7-0.2-2.8-0.2c-5.8,0-9.9,4.3-11,10.5c-0.2,1.1-0.3,2.5-0.3,3.8v24.1h-8.2V276.3z"/>
	<path d="M278.6,241.1v54.7c0,4,0.2,8.6,0.4,11.7h-7.3l-0.4-7.9H271c-2.4,5-7.9,8.9-15.2,8.9c-10.9,0-19.4-9.3-19.4-23
		c-0.1-15.1,9.3-24.2,20.3-24.2c7,0,11.6,3.3,13.6,6.8h0.2v-27H278.6z M270.4,280.6c0-1-0.1-2.4-0.4-3.5c-1.2-5.1-5.7-9.4-11.9-9.4
		c-8.5,0-13.6,7.5-13.6,17.4c0,9.2,4.6,16.7,13.4,16.7c5.5,0,10.6-3.7,12.1-9.8c0.3-1.1,0.4-2.2,0.4-3.6V280.6z"/>
	<path d="M292.3,274.4c0-4.8-0.2-8.5-0.4-12.2h7.2l0.4,7.4h0.3c2.5-4.3,6.7-8.3,14.3-8.3c6.1,0,10.8,3.7,12.7,9.1h0.2
		c1.4-2.6,3.3-4.5,5.1-5.9c2.7-2.1,5.6-3.2,9.9-3.2c6.1,0,15,3.9,15,19.6v26.6h-8v-25.5c0-8.8-3.3-13.9-9.8-13.9
		c-4.8,0-8.3,3.5-9.8,7.4c-0.4,1.2-0.7,2.6-0.7,4.1v28h-8v-27.1c0-7.2-3.2-12.3-9.4-12.3c-5,0-8.9,4.1-10.2,8.2
		c-0.5,1.1-0.7,2.6-0.7,4v27.2h-8V274.4z"/>
	<path d="M402,296.6c0,3.9,0.2,7.8,0.7,10.8h-7.4l-0.7-5.7h-0.3c-2.5,3.6-7.4,6.7-13.8,6.7c-9.2,0-13.8-6.5-13.8-13
		c0-10.9,9.7-16.9,27.2-16.8v-0.9c0-3.6-1-10.5-10.3-10.4c-4.3,0-8.7,1.2-11.9,3.4l-1.9-5.5c3.7-2.3,9.3-3.9,15-3.9
		c13.8,0,17.2,9.4,17.2,18.4V296.6z M394.1,284.3c-9-0.2-19.2,1.4-19.2,10.2c0,5.4,3.6,7.9,7.7,7.9c6,0,9.8-3.7,11.1-7.6
		c0.3-0.9,0.4-1.9,0.4-2.6V284.3z"/>
	<path d="M415.3,276.3c0-5.3-0.1-9.9-0.4-14.1h7.2l0.4,9h0.3c2.1-6.1,7.1-9.9,12.6-9.9c0.8,0,1.5,0.1,2.2,0.2v7.8
		c-0.8-0.2-1.7-0.2-2.8-0.2c-5.8,0-9.9,4.3-11,10.5c-0.2,1.1-0.3,2.5-0.3,3.8v24.1h-8.2V276.3z"/>
	<path d="M454.4,282.9h0.2c1.1-1.6,2.6-3.6,3.9-5.1l13.4-15.6h9.8l-17.4,18.6l19.9,26.6h-10.1l-15.5-21.7l-4.2,4.7v17h-8.1v-66.4
		h8.1V282.9z"/>
</g>
<g>
</g>
<g>
</g>
<g>
</g>
<g>
</g>
<g>
</g>
<g>
</g>
<g>
</g>
<g>
</g>
<g>
</g>
<g>
</g>
<g>
</g>
<g>
</g>
<g>
</g>
<g>
</g>
<g>
</g>
</svg>
