<svg id="Layer_1" data-name="Layer 1" xmlns="http://www.w3.org/2000/svg" width="560.1" height="290.6" viewBox="0 0 560.1 290.6"><defs><style>.cls-1{fill:#5bc6cc;}.cls-2{fill:#df6b26;}</style></defs><title>new-wordmark</title><path class="cls-1" d="M234.9,157.5c-11.8-32.2-35.4-60.4-75.7-58.9-28.9,1.1-19.5,9.4-19.5,9.4,17,2.3,61.7,6.9,72.1,67.5,11.7,68.4-4,153.7-89.7-25.7,0,0,34.8-121.2-29.2-148.7-35.9-15.4-14.8,122,4,150.7,0,0-18.6,47.4-40.3,40.3s-25.7-29.7-25.7-35.3,0-16.1-8.6-17.1-11.6,10.1-11.6,24.7,0.5,48.9-6.6,58-3.7,12.6,0,14.8,23.1,7.8,25.9-38.6c0,0,38.7,49.6,78.3-17.4,0,0,42.6,115.7,95.7,109C254.7,284,248,193.3,234.9,157.5ZM108.9,114S88.1,65.5,94.4,22.5C94.4,22.5,120.2,51,108.9,114Z" transform="translate(0 0)"/><circle class="cls-2" cx="23.2" cy="101" r="13.2"/><path class="cls-2" d="M289.6,174.8h25.9v4.6H294.7V198h20v4.6h-20v23.4h-5.1V174.8Z" transform="translate(0 0)"/><path class="cls-2" d="M348.4,173.9c14.4,0,27.2,11.4,27.2,26.5S362.8,227,348.4,227s-27.1-11.9-27.1-26.3C321.3,184.6,334.8,173.9,348.4,173.9Zm0,48.5a21.9,21.9,0,1,0-22-21.6C326.5,212.4,336.5,222.4,348.4,222.4Z" transform="translate(0 0)"/><path class="cls-2" d="M383.4,174.8h13c6.9,0,10.3.8,12.6,1.9a15.9,15.9,0,0,1,9.2,14.6c0,7.4-5.3,15-15.3,15.6l14.5,19.1H411l-17.4-23.2c6.5,0,8.7-.1,11-0.8a11.3,11.3,0,0,0,8.5-10.9c0-4-2.3-8.2-5.6-9.8s-5.7-1.9-10-1.9h-8.9v46.7h-5.1V174.8Z" transform="translate(0 0)"/><path class="cls-2" d="M433.3,179.4H421.5v-4.6h28.6v4.6H438.4v46.7h-5.1V179.4Z" transform="translate(0 0)"/><path class="cls-2" d="M455.9,174.8H461v51.3h-5.1V174.8Z" transform="translate(0 0)"/><path class="cls-2" d="M471.1,174.8h28.1v4.6H476.2v18.4h22.2v4.6H476.2v18.9h22.9v4.6H471.1V174.8Z" transform="translate(0 0)"/><path class="cls-2" d="M508.3,174.8h13c6.9,0,10.3.8,12.6,1.9a15.9,15.9,0,0,1,9.2,14.6c0,7.4-5.3,15-15.3,15.6l14.5,19.1h-6.4l-17.4-23.2c6.5,0,8.7-.1,11-0.8a11.3,11.3,0,0,0,8.5-10.9c0-4-2.3-8.2-5.6-9.8s-5.7-1.9-10-1.9h-8.9v46.7h-5.1V174.8Z" transform="translate(0 0)"/><path class="cls-1" d="M290,94h5.1v51.3H290V94Z" transform="translate(0 0)"/><path class="cls-1" d="M307,130.9c0.3,6.4,4.4,10.6,10.7,10.6A10.2,10.2,0,0,0,328,131.4c0-7.9-8-9.9-11.4-11s-13.3-3.3-13.3-13.5c0-8,6.3-13.8,14.4-13.8A13.9,13.9,0,0,1,331.9,107h-5.1a9.2,9.2,0,0,0-9.1-9.3,9,9,0,0,0-9.3,8.9c0,6.2,5.5,7.7,12.2,9.6,12.6,3.4,12.5,13.3,12.5,14.8a15.2,15.2,0,0,1-15.5,15c-6.7,0-15.6-4-15.8-15.3H307Z" transform="translate(0 0)"/><path class="cls-1" d="M357.6,94h5.8l22,51.3h-5.6L372.4,128H348.6l-7.5,17.3h-5.3Zm-7.1,29.4h19.9l-9.8-23.6Z" transform="translate(0 0)"/><path class="cls-1" d="M391.3,94h12.9c16.2,0,16.8,11.6,16.8,13.7,0,6-3.8,8.9-5.6,10.3a13.3,13.3,0,0,1,8.5,12.6,14.3,14.3,0,0,1-5.9,11.9c-4.4,2.6-7.8,2.9-13.8,2.8H391.3V94Zm5.1,22.1h6.4c4,0,6.3-.2,8.8-1.5a8.4,8.4,0,0,0,2-12.8c-2-2.3-5.1-3.2-10.4-3.2h-6.9v17.5Zm0,24.5h7.2c4.3,0,6.9-.2,9.7-1.3a9.5,9.5,0,0,0-.6-17.4c-2.4-1-4.5-1.2-10-1.2h-6.3v19.9Z" transform="translate(0 0)"/><path class="cls-1" d="M430.8,94h28.1v4.6H436v18.4h22.2v4.6H436v18.9h22.9v4.6H430.8V94Z" transform="translate(0 0)"/><path class="cls-1" d="M468.8,94H474v46.7h21.2v4.6H468.8V94Z" transform="translate(0 0)"/><path class="cls-1" d="M500.8,94H506v46.7h21.2v4.6H500.8V94Z" transform="translate(0 0)"/><path class="cls-1" d="M532,94h28.1v4.6H537.2v18.4h22.2v4.6H537.2v18.9h22.9v4.6H532V94Z" transform="translate(0 0)"/></svg>