<svg xmlns="http://www.w3.org/2000/svg" viewBox="0 0 560 307.1" enable-background="new 0 0 560 307.1"><style type="text/css">.st0{fill:#E06B26;} .st1{fill:#5BC6CC;}</style><path class="st0" d="M164.6 178.9h40.2v7.2h-32.2v28.8h31v7.2h-31v36.3h-7.9v-79.5zM255.8 177.5c22.3 0 42.1 17.7 42.1 41.1 0 23.4-19.9 41.1-42.1 41.1-22.6 0-42-18.4-42-40.7 0-25 20.8-41.5 42-41.5zm0 75.1c18.4 0 34.1-14.9 34.1-33.8 0-18.6-15.4-34-34.1-34-17.9 0-34 14.6-34 34.4-.1 18 15.5 33.4 34 33.4zM310 178.9h20.2c10.6 0 15.9 1.3 19.5 3 8.9 4.2 14.2 12.9 14.2 22.7 0 11.5-8.3 23.2-23.6 24.2l22.4 29.6h-10l-27-36c10.1 0 13.5-.1 17.1-1.2 8.7-2.5 13.1-9.8 13.1-16.9 0-6.2-3.5-12.7-8.7-15.2-4.7-2.5-8.8-3-15.5-3h-13.9v72.3h-7.8v-79.5zM387.2 186.1h-18.3v-7.2h44.4v7.2h-18.1v72.3h-7.9v-72.3zM422.2 178.9h7.9v79.5h-7.9v-79.5zM445.8 178.9h43.5v7.2h-35.5v28.6h34.4v7.2h-34.4v29.3h35.5v7.2h-43.5v-79.5zM503.4 178.9h20.2c10.6 0 15.9 1.3 19.5 3 8.9 4.2 14.2 12.9 14.2 22.7 0 11.5-8.3 23.2-23.6 24.2l22.4 29.6h-10l-27-36c10.1 0 13.5-.1 17.1-1.2 8.7-2.5 13.1-9.8 13.1-16.9 0-6.2-3.5-12.7-8.7-15.2-4.7-2.5-8.8-3-15.5-3h-13.9v72.3h-7.9v-79.5z"/><path class="st1" d="M103.8 4h18.5v299.1h-18.5v-299.1zM197.9 0v18.5h-169.7v-18.5h169.7zM197.9 288.5v18.5h-169.7v-18.5h169.7zM75.6 4h18.5v299.1h-18.5v-299.1zM169.7 0v18.5h-169.7v-18.5h169.7zM169.7 288.5v18.5h-169.7v-18.5h169.7zM167.4 111c.4 10 6.8 16.4 16.5 16.4 8.4 0 16-6.4 16-15.8 0-12.2-12.4-15.4-17.7-17-7.2-2.1-20.6-5.2-20.6-20.9 0-12.4 9.8-21.4 22.3-21.4 13 0 22 10 22 21.6h-7.9c0-8.1-6.6-14.4-14.1-14.4-9.1 0-14.4 7-14.4 13.9 0 9.7 8.5 11.9 18.9 14.9 19.5 5.3 19.4 20.6 19.4 23 0 12.2-9.9 23.3-23.9 23.3-10.3 0-24.2-6.1-24.5-23.6h8zM245.8 53.7h8.9l34.2 79.5h-8.7l-11.5-26.7h-36.9l-11.6 26.7h-8.3l33.9-79.5zm-11.1 45.6h30.8l-15.2-36.5-15.6 36.5zM298 53.7h20c25 0 26 17.9 26 21.2 0 9.3-5.9 13.7-8.7 16 7.9 3.2 13.2 10.4 13.2 19.5 0 7.6-3.5 14.6-9.1 18.4-6.8 4-12 4.5-21.4 4.4h-20v-79.5zm7.9 34.3h10c6.2 0 9.8-.3 13.6-2.3 3.8-1.9 6.4-6.4 6.4-11.2 0-3.7-1.3-6.2-3.3-8.7-3.1-3.5-7.9-4.9-16.1-4.9h-10.6v27.1zm0 38h11.2c6.7 0 10.7-.3 15-2 4.9-2 8.4-7.5 8.4-13.5 0-6.1-4.1-11.4-9.3-13.4-3.8-1.5-7-1.8-15.5-1.8h-9.8v30.7zM359.2 53.7h43.5v7.2h-35.5v28.6h34.4v7.2h-34.4v29.3h35.5v7.2h-43.5v-79.5zM418 53.7h7.9v72.3h32.9v7.2h-40.8v-79.5zM467.6 53.7h7.9v72.3h32.9v7.2h-40.8v-79.5zM516 53.7h43.5v7.2h-35.5v28.6h34.4v7.2h-34.4v29.3h35.5v7.2h-43.5v-79.5z"/><path class="st0" d="M152.6 178.9h40.2v7.2h-32.2v28.8h31v7.2h-31v36.3h-7.9v-79.5zM243.7 177.5c22.3 0 42.1 17.7 42.1 41.1 0 23.4-19.9 41.1-42.1 41.1-22.6 0-42-18.4-42-40.7.1-25 20.9-41.5 42-41.5zm0 75.1c18.4 0 34.2-14.9 34.2-33.8 0-18.6-15.4-34-34.2-34-17.9 0-34 14.6-34 34.4 0 18 15.6 33.4 34 33.4zM298 178.9h20.2c10.6 0 15.9 1.3 19.5 3 8.9 4.2 14.2 12.9 14.2 22.7 0 11.5-8.3 23.2-23.6 24.2l22.4 29.6h-10l-27-36c10.1 0 13.5-.1 17.1-1.2 8.7-2.5 13.1-9.8 13.1-16.9 0-6.2-3.5-12.7-8.7-15.2-4.7-2.5-8.8-3-15.5-3h-13.9v72.3h-7.8v-79.5zM375.2 186.1h-18.3v-7.2h44.4v7.2h-18.1v72.3h-7.9v-72.3zM410.2 178.9h7.9v79.5h-7.9v-79.5zM433.8 178.9h43.5v7.2h-35.5v28.6h34.4v7.2h-34.4v29.3h35.5v7.2h-43.5v-79.5zM491.4 178.9h20.2c10.6 0 15.9 1.3 19.5 3 8.9 4.2 14.2 12.9 14.2 22.7 0 11.5-8.3 23.2-23.6 24.2l22.4 29.6h-10l-27-36c10.1 0 13.5-.1 17.1-1.2 8.7-2.5 13.1-9.8 13.1-16.9 0-6.2-3.5-12.7-8.7-15.2-4.7-2.5-8.8-3-15.5-3h-13.9v72.3h-7.9v-79.5z"/><path class="st1" d="M155.4 111c.4 10 6.8 16.4 16.5 16.4 8.4 0 16-6.4 16-15.8 0-12.2-12.4-15.4-17.7-17-7.2-2.1-20.6-5.2-20.6-20.9 0-12.4 9.8-21.4 22.3-21.4 13 0 22 10 22 21.6h-7.9c0-8.1-6.6-14.4-14.1-14.4-9.1 0-14.4 7-14.4 13.9 0 9.7 8.5 11.9 18.9 14.9 19.5 5.3 19.4 20.6 19.4 23 0 12.2-9.9 23.3-23.9 23.3-10.3 0-24.2-6.1-24.5-23.6h8zM233.8 53.7h8.9l34.2 79.5h-8.7l-11.5-26.7h-36.9l-11.6 26.7h-8.3l33.9-79.5zm-11.1 45.6h30.8l-15.2-36.5-15.6 36.5zM285.9 53.7h20c25 0 26 17.9 26 21.2 0 9.3-5.9 13.7-8.7 16 7.9 3.2 13.2 10.4 13.2 19.5 0 7.6-3.5 14.6-9.1 18.4-6.8 4-12 4.5-21.4 4.4h-20v-79.5zm8 34.3h10c6.2 0 9.8-.3 13.6-2.3 3.8-1.9 6.4-6.4 6.4-11.2 0-3.7-1.3-6.2-3.3-8.7-3.1-3.5-7.9-4.9-16.1-4.9h-10.6v27.1zm0 38h11.2c6.7 0 10.7-.3 15-2 4.9-2 8.4-7.5 8.4-13.5 0-6.1-4.1-11.4-9.3-13.4-3.8-1.5-7-1.8-15.5-1.8h-9.8v30.7zM347.1 53.7h43.5v7.2h-35.5v28.6h34.4v7.2h-34.4v29.3h35.5v7.2h-43.5v-79.5zM406 53.7h7.9v72.3h32.9v7.2h-40.8v-79.5zM455.6 53.7h7.9v72.3h32.9v7.2h-40.8v-79.5zM503.9 53.7h43.5v7.2h-35.5v28.6h34.4v7.2h-34.4v29.3h35.5v7.2h-43.5v-79.5z"/></svg>